<svg xmlns="http://www.w3.org/2000/svg" viewBox="0 0 200 200" role="img" aria-labelledby="title desc">
  <title id="title">Realistic Elegant Book Logo with Text and Glow</title>
  <desc id="desc">Open book logo with realistic pages, squiggly lines representing text, and a larger glowing sparkle above, on a soft circular gradient background.</desc>

  <defs>
    <!-- Background gradient -->
    <radialGradient id="gradBg" cx="50%" cy="50%" r="50%">
      <stop offset="0%" stop-color="#F0F8FF"></stop>
      <stop offset="100%" stop-color="#DCEBFA"></stop>
    </radialGradient>

    <!-- Book gradient -->
    <linearGradient id="gradBook" x1="0" y1="0" x2="1" y2="1">
      <stop offset="0%" stop-color="#2F6FD6"></stop>
      <stop offset="100%" stop-color="#00BFA5"></stop>
    </linearGradient>

    <!-- Page shading gradient -->
    <linearGradient id="gradPages" x1="0" y1="0" x2="0" y2="1">
      <stop offset="0%" stop-color="#FFFFFF" stop-opacity="0.95"></stop>
      <stop offset="100%" stop-color="#E6F0FF" stop-opacity="0.95"></stop>
    </linearGradient>

    <!-- Sparkle gradient for glow -->
    <radialGradient id="gradSparkleGlow" cx="50%" cy="50%" r="50%">
      <stop offset="0%" stop-color="#FFD700" stop-opacity="1"></stop>
      <stop offset="100%" stop-color="#FFD700" stop-opacity="0"></stop>
    </radialGradient>

    <!-- Sparkle gradient fill -->
    <linearGradient id="gradSparkle" x1="0" y1="0" x2="1" y2="1">
      <stop offset="0%" stop-color="#FFD700"></stop>
      <stop offset="100%" stop-color="#FFA500"></stop>
    </linearGradient>
  </defs>

  <!-- Background circle -->
  <circle cx="100" cy="100" r="95" fill="url(#gradBg)"></circle>

  <!-- Left cover -->
  <path d="M50,130 L50,90 Q75,70 100,90 L100,150 Q75,160 50,150 Z" fill="url(#gradPages)" stroke="url(#gradBook)" stroke-width="3" stroke-linecap="round" stroke-linejoin="round"></path>

  <!-- Right cover -->
  <path d="M100,90 Q125,70 150,90 L150,130 L150,150 Q125,160 100,150 Z" fill="url(#gradPages)" stroke="url(#gradBook)" stroke-width="3" stroke-linecap="round" stroke-linejoin="round"></path>

  <!-- Spine -->
  <line x1="100" y1="90" x2="100" y2="150" stroke="url(#gradBook)" stroke-width="2"></line>

  <!-- Squiggly lines inside pages (representing text) -->
  <g stroke="#8DA6C0" stroke-width="1.2" fill="none">
    <!-- Left page squiggles -->
    <path d="M60,115 Q65,112 70,115 Q75,118 80,115 Q85,112 90,115 Q95,118 100,115"></path>
    <path d="M60,125 Q65,122 70,125 Q75,128 80,125 Q85,122 90,125 Q95,128 100,125"></path>
    <path d="M60,135 Q65,132 70,135 Q75,138 80,135 Q85,132 90,135 Q95,138 100,135"></path>
    <path d="M60,145 Q65,142 70,145 Q75,148 80,145 Q85,142 90,145 Q95,148 100,145"></path>
    
    <!-- Right page squiggles -->
    <path d="M100,115 Q105,112 110,115 Q115,118 120,115 Q125,112 130,115 Q135,118 140,115"></path>
    <path d="M100,125 Q105,122 110,125 Q115,128 120,125 Q125,122 130,125 Q135,128 140,125"></path>
    <path d="M100,135 Q105,132 110,135 Q115,138 120,135 Q125,132 130,135 Q135,138 140,135"></path>
    <path d="M100,145 Q105,142 110,145 Q115,148 120,145 Q125,142 130,145 Q135,148 140,145"></path>
  </g>

  <!-- Glow behind sparkle -->
  <circle cx="100" cy="60" r="12" fill="url(#gradSparkleGlow)"></circle>

  <!-- Sparkle above book -->
  <circle cx="100" cy="60" r="7" fill="url(#gradSparkle)"></circle>
  <g stroke="url(#gradSparkle)" stroke-width="3" stroke-linecap="round">
    <line x1="100" y1="45" x2="100" y2="30"></line>
    <line x1="100" y1="75" x2="100" y2="90"></line>
    <line x1="85" y1="60" x2="70" y2="60"></line>
    <line x1="115" y1="60" x2="130" y2="60"></line>
  </g>
</svg>
